<?xml version="1.0" standalone="no"?>
<!DOCTYPE svg PUBLIC "-//W3C//DTD SVG 20010904//EN"
 "http://www.w3.org/TR/2001/REC-SVG-20010904/DTD/svg10.dtd">
<svg version="1.0" xmlns="http://www.w3.org/2000/svg"
 width="320.000000pt" height="320.000000pt" viewBox="0 0 320.000000 320.000000"
 preserveAspectRatio="xMidYMid meet">

<g transform="translate(0.000000,320.000000) scale(0.100000,-0.100000)"
fill="#000000" stroke="none">
<path d="M185 3015 l-25 -24 0 -1391 0 -1391 25 -24 24 -25 1391 0 1391 0 24
25 25 24 0 1391 0 1391 -25 24 -24 25 -1391 0 -1391 0 -24 -25z m2212 -1204
l-7 -60 43 -3 42 -3 -4 -40 c-5 -61 -16 -75 -60 -75 l-38 0 -12 -86 c-14 -100
-9 -112 40 -95 18 6 34 10 36 8 2 -2 0 -25 -3 -50 -6 -45 -8 -47 -56 -63 -59
-19 -120 -14 -150 13 -19 17 -20 25 -14 118 4 55 9 115 12 133 5 27 4 31 -10
26 -22 -9 -29 16 -19 68 7 33 13 44 30 46 16 2 24 12 29 37 5 31 12 37 68 59
33 13 65 25 70 25 5 1 6 -25 3 -58z m-297 -66 c17 -9 38 -31 47 -50 15 -32 15
-46 -2 -195 l-19 -160 -63 0 c-60 0 -63 1 -63 25 l0 24 -36 -24 c-53 -36 -123
-35 -163 3 -42 38 -48 85 -19 141 31 60 80 85 176 89 72 4 73 5 70 31 -3 23
-8 26 -46 29 -24 2 -64 -4 -88 -12 -44 -15 -45 -14 -53 7 -23 62 -23 63 16 80
88 39 182 44 243 12z m-585 -18 c8 -12 15 -34 15 -49 0 -26 1 -26 43 18 49 53
97 69 145 48 46 -19 49 -57 18 -232 -14 -81 -26 -151 -26 -155 0 -4 -31 -7
-70 -7 -38 0 -70 3 -70 8 0 4 9 63 19 132 11 69 16 129 12 133 -13 13 -40 -4
-62 -40 -13 -21 -28 -74 -38 -136 l-17 -102 -63 -3 c-35 -2 -68 1 -73 6 -4 4
1 65 12 137 21 138 17 163 -21 129 -35 -32 -56 -85 -68 -172 -6 -46 -13 -88
-16 -93 -7 -11 -132 -12 -138 -1 -3 4 4 59 14 122 10 63 22 150 25 193 l7 77
37 0 c21 0 52 3 69 6 l31 7 0 -51 0 -51 38 40 c61 65 145 82 177 36z m1242 22
c66 -25 106 -88 107 -169 1 -75 -26 -140 -78 -188 -52 -48 -102 -66 -168 -60
-92 9 -140 65 -146 168 -4 61 -1 78 23 125 51 106 166 160 262 124z m-1727
-18 c77 -41 103 -165 56 -266 -43 -93 -123 -142 -218 -133 -52 5 -89 27 -122
72 -28 37 -30 174 -4 222 23 43 76 94 113 110 45 20 134 17 175 -5z m-306 -28
c-6 -36 -53 -103 -104 -148 -12 -11 -36 -38 -53 -59 l-31 -39 77 7 c43 4 77 3
77 -2 0 -5 -5 -34 -11 -66 l-12 -56 -166 2 -166 3 -3 32 c-3 29 8 45 93 138
l96 105 -71 0 -72 0 7 53 c4 28 9 55 12 60 2 4 78 7 169 7 l165 0 -7 -37z"/>
<path d="M1912 1518 c-12 -6 -25 -22 -29 -36 -17 -71 77 -86 117 -19 32 52 27
67 -22 66 -24 0 -53 -5 -66 -11z"/>
<path d="M2653 1632 c-45 -28 -57 -171 -16 -186 40 -16 73 40 73 123 0 60 -23
85 -57 63z"/>
<path d="M903 1632 c-18 -12 -43 -77 -43 -114 0 -38 24 -78 46 -78 26 0 54 61
54 121 0 68 -21 94 -57 71z"/>
</g>
</svg>
