<?xml version="1.0" standalone="no"?>
<!DOCTYPE svg PUBLIC "-//W3C//DTD SVG 20010904//EN"
 "http://www.w3.org/TR/2001/REC-SVG-20010904/DTD/svg10.dtd">
<svg version="1.0" xmlns="http://www.w3.org/2000/svg"
 width="1200.000000pt" height="1200.000000pt" viewBox="0 0 1200.000000 1200.000000"
 preserveAspectRatio="xMidYMid meet">

<g transform="translate(0.000000,1200.000000) scale(0.100000,-0.100000)"
fill="#000000" stroke="none">
<path d="M0 6000 l0 -6000 6000 0 6000 0 0 6000 0 6000 -6000 0 -6000 0 0
-6000z m9340 1378 c0 -13 -57 -435 -65 -480 l-4 -28 190 0 191 0 -5 -22 c-3
-13 -17 -99 -32 -193 -14 -93 -28 -182 -31 -197 l-6 -28 -183 0 -183 0 -6 -37
c-39 -260 -87 -658 -83 -697 3 -37 11 -55 28 -69 36 -29 130 -19 249 26 52 20
95 35 96 34 1 -1 -12 -90 -29 -197 l-32 -195 -75 -37 c-111 -55 -244 -88 -381
-95 -198 -10 -321 32 -388 133 -74 112 -75 256 -3 760 29 199 52 364 52 367 0
4 -41 7 -90 7 -88 0 -90 0 -86 23 3 12 15 108 27 214 25 220 14 203 140 203
l77 0 38 157 39 158 270 102 c149 56 273 102 278 102 4 1 7 -5 7 -11z m-1405
-452 c213 -59 341 -185 376 -371 16 -86 5 -300 -25 -515 -45 -311 -76 -609
-76 -722 l0 -108 -275 0 c-165 0 -275 4 -275 9 0 6 6 38 14 73 8 35 17 86 21
113 l6 50 -43 -45 c-129 -134 -258 -198 -444 -220 -266 -30 -447 86 -509 325
-30 118 -10 277 50 396 75 147 257 271 473 320 117 27 375 35 494 17 102 -16
98 -19 98 80 0 85 -25 142 -77 176 -112 74 -373 45 -622 -70 -41 -19 -75 -34
-77 -34 -2 0 -28 77 -59 172 -65 199 -69 177 51 233 103 48 282 102 409 125
138 24 394 22 490 -4z m2860 -36 c173 -55 311 -170 383 -321 67 -140 77 -188
77 -394 0 -156 -3 -192 -24 -269 -103 -393 -376 -670 -730 -742 -122 -24 -307
-16 -416 19 -179 58 -305 167 -385 332 -62 131 -75 195 -75 385 1 181 15 264
75 417 111 291 374 523 665 589 95 22 341 13 430 -16z m-5275 -5 c129 -46 190
-176 177 -377 l-6 -92 46 70 c137 209 292 343 463 400 70 23 206 23 269 0 133
-49 190 -173 178 -389 -4 -78 -174 -1141 -202 -1264 l-5 -23 -275 0 c-208 0
-275 3 -275 12 0 7 34 253 76 547 66 461 75 540 65 573 -14 45 -43 56 -100 40
-99 -30 -232 -210 -290 -393 -18 -57 -86 -497 -108 -699 l-8 -75 -290 -3
c-159 -1 -295 0 -301 2 -8 3 -6 33 7 108 34 186 140 919 140 975 1 72 -20 97
-75 90 -106 -14 -252 -198 -315 -397 -18 -56 -105 -623 -113 -735 l-3 -40
-297 -3 c-237 -2 -298 0 -298 11 0 7 13 91 29 187 16 96 57 366 91 600 53 362
63 455 69 625 l6 200 130 7 c72 4 191 15 265 24 74 10 144 18 155 18 18 1 21
-8 27 -74 7 -71 -5 -331 -18 -388 -4 -17 8 -5 33 35 152 246 353 408 553 447
42 8 154 -3 200 -19z m-2092 0 c114 -23 244 -90 319 -165 143 -141 203 -305
203 -556 0 -330 -135 -630 -370 -821 -78 -63 -238 -145 -335 -170 -97 -25
-324 -25 -415 0 -200 54 -342 172 -425 352 -45 97 -65 182 -72 305 -28 502
290 959 732 1053 92 20 267 21 363 2z m-1082 -104 c-3 -41 -6 -108 -6 -150 l0
-77 -377 -410 c-208 -226 -384 -418 -392 -428 -13 -16 5 -17 305 -16 175 0
322 1 325 0 4 0 0 -30 -8 -67 -8 -38 -29 -149 -47 -248 l-33 -180 -244 5
c-291 6 -859 3 -1016 -5 l-113 -6 0 156 0 156 58 62 c31 34 194 211 361 392
167 182 320 347 340 369 l36 38 -309 -6 -309 -7 7 33 c11 55 55 339 62 403 l6
60 680 0 681 0 -7 -74z"/>
<path d="M7458 5979 c-142 -18 -242 -77 -291 -169 -53 -102 -25 -215 66 -271
57 -34 132 -43 205 -25 145 36 260 156 312 325 25 79 26 118 3 125 -19 6 -201
26 -218 25 -5 -1 -40 -5 -77 -10z"/>
<path d="M10415 6437 c-77 -35 -147 -146 -186 -292 -30 -111 -33 -335 -5 -413
48 -140 174 -172 274 -71 165 168 205 658 60 760 -37 27 -103 34 -143 16z"/>
<path d="M3125 6435 c-83 -45 -150 -154 -187 -303 -29 -120 -31 -312 -4 -396
35 -106 109 -153 198 -127 117 35 211 236 224 481 10 162 -23 287 -87 333 -37
26 -106 32 -144 12z"/>
</g>
</svg>
